<svg xmlns="http://www.w3.org/2000/svg" width="24" height="24" viewBox="0 0 24 24" fill="none" stroke="currentColor" stroke-width="2" stroke-linecap="round" stroke-linejoin="round"><path d="M8 11.5A2.5 2.5 0 0 0 10.5 9c0-1.38-.5-2-1-3-1.072-2.143-.224-4.054 2-6 .5 2.5-2 4.5-2 4.5-.5 1.5-2.5 2.5-2.5 2.5"/><path d="M16 11.5a2.5 2.5 0 0 0 2.5-2.5c0-1.38-.5-2-1-3-1.072-2.143-.224-4.054 2-6 .5 2.5-2 4.5-2 4.5-.5 1.5-2.5 2.5-2.5 2.5"/><path d="M12 21a9 9 0 0 0 9-9h-2a7 7 0 0 1-7 7v2z"/><path d="M3 12a9 9 0 0 1 9-9V1a11 11 0 0 0-11 11h2z"/></svg>